<?xml version="1.0" encoding="UTF-8" standalone="no"?>
<svg
   xmlns:dc="http://purl.org/dc/elements/1.1/"
   xmlns:cc="http://creativecommons.org/ns#"
   xmlns:rdf="http://www.w3.org/1999/02/22-rdf-syntax-ns#"
   xmlns:svg="http://www.w3.org/2000/svg"
   xmlns="http://www.w3.org/2000/svg"
   id="svg1856"
   version="1.1"
   viewBox="0 0 21.110485 19.263893"
   height="19.263893mm"
   width="21.110485mm">
  <defs
     id="defs1850" />
  <metadata
     id="metadata1853">
    <rdf:RDF>
      <cc:Work
         rdf:about="">
        <dc:format>image/svg+xml</dc:format>
        <dc:type
           rdf:resource="http://purl.org/dc/dcmitype/StillImage" />
        <dc:title></dc:title>
      </cc:Work>
    </rdf:RDF>
  </metadata>
  <g
     transform="translate(269.84691,58.858137)"
     id="layer1">
    <g
       id="g1241"
       transform="matrix(0.35277777,0,0,-0.35277777,-278.31379,32.372704)">
      <path
         id="path1010"
         style="fill:#aabbce;fill-opacity:1;fill-rule:nonzero;stroke:none"
         d="m 82.6333,216.9258 c -0.755,0.092 -1.437,-0.445 -1.528,-1.197 -0.01,-0.078 -1.03,-7.808 -8.303,-8.789 -9.278,-1.249 -11.343,3.89 -12.709,7.292 l -0.078,0.193 c -1.248,3.101 -2.157,5.901 -2.82,7.946 -0.716,2.206 -1.148,3.538 -1.636,4.251 -0.387,0.568 -9.362,13.998 2.006,25.199 3.968,3.91 9.339,5.061 14.368,3.077 4.879,-1.925 8.038,-6.229 8.242,-11.23 0.032,-0.758 0.667,-1.345 1.429,-1.315 0.757,0.031 1.346,0.671 1.316,1.427 -0.247,6.01 -4.165,11.375 -9.979,13.67 -6.068,2.397 -12.536,1.022 -17.303,-3.674 -4.92,-4.848 -7.136,-10.883 -6.408,-17.455 0.666,-6.028 3.502,-10.428 4.065,-11.249 0.265,-0.387 0.762,-1.922 1.29,-3.546 0.676,-2.084 1.601,-4.937 2.885,-8.125 l 0.077,-0.192 c 1.332,-3.316 3.697,-9.208 12.507,-9.208 0.96,0 1.997,0.07 3.116,0.22 7.483,1.008 10.246,7.752 10.661,11.178 0.091,0.753 -0.445,1.436 -1.198,1.527" />
      <path
         id="path1014"
         style="fill:#aabbce;fill-opacity:1;fill-rule:nonzero;stroke:none"
         d="m 76.8901,231.6699 c 0.454,0.122 1.004,-0.118 1.164,-0.213 0.643,-0.401 1.49,-0.206 1.891,0.438 0.403,0.642 0.208,1.489 -0.436,1.891 -0.161,0.1 -1.626,0.972 -3.289,0.546 -0.723,-0.184 -1.745,-0.691 -2.511,-2.059 -1.406,-2.512 0.248,-5.484 1.344,-7.45 0.271,-0.489 0.61,-1.096 0.666,-1.312 0.359,-1.398 -0.098,-2.959 -1.087,-3.714 -1.098,-0.839 -2.422,-0.392 -3.34,0.131 -4.058,2.316 -5.411,6.409 -4.023,12.169 1.487,6.17 6.156,7.384 7.256,7.587 0.425,-1.332 0.543,-2.387 0.545,-2.409 0.076,-0.753 0.75,-1.303 1.503,-1.228 0.755,0.077 1.304,0.75 1.228,1.504 -0.024,0.247 -0.654,6.075 -4.643,8.909 -2.071,1.471 -4.608,1.861 -7.543,1.159 -4.461,-1.067 -7.097,-4.613 -7.624,-10.257 -0.373,-3.997 0.453,-7.648 0.488,-7.801 0.147,-0.636 0.711,-1.065 1.336,-1.065 0.102,0 0.205,0.011 0.309,0.034 0.738,0.169 1.2,0.907 1.031,1.645 -0.008,0.034 -0.769,3.425 -0.424,6.988 0.423,4.39 2.282,7.01 5.522,7.784 2.157,0.515 3.892,0.281 5.306,-0.72 0.751,-0.533 1.346,-1.237 1.817,-1.993 -2.204,-0.574 -7.116,-2.608 -8.775,-9.496 -2.129,-8.831 1.724,-13.136 5.332,-15.195 1.119,-0.64 2.249,-0.958 3.317,-0.958 1.108,0 2.151,0.343 3.048,1.029 1.886,1.439 2.721,4.084 2.079,6.58 -0.144,0.558 -0.488,1.178 -0.926,1.963 -0.798,1.433 -2.003,3.599 -1.347,4.774 0.348,0.62 0.677,0.711 0.786,0.739" />
      <path
         id="path1018"
         style="fill:#aabbce;fill-opacity:1;fill-rule:nonzero;stroke:none"
         d="m 45.4917,219.2529 -9.273,-7.198 c -0.715,-0.556 -0.844,-1.586 -0.289,-2.301 0.322,-0.416 0.806,-0.634 1.295,-0.634 0.352,0 0.706,0.112 1.005,0.345 l 9.272,7.199 c 0.716,0.556 0.844,1.585 0.29,2.301 -0.555,0.714 -1.585,0.844 -2.3,0.288" />
      <path
         id="path1022"
         style="fill:#aabbce;fill-opacity:1;fill-rule:nonzero;stroke:none"
         d="m 43.438,233.4834 c -0.071,0.885 -0.842,1.543 -1.728,1.473 l -16.232,-1.297 c -0.885,-0.072 -1.544,-0.845 -1.472,-1.728 0.067,-0.84 0.769,-1.477 1.597,-1.477 0.043,0 0.087,0.002 0.13,0.006 l 16.233,1.295 c 0.882,0.072 1.542,0.844 1.472,1.728" />
      <path
         id="path1026"
         style="fill:#aabbce;fill-opacity:1;fill-rule:nonzero;stroke:none"
         d="m 31.8462,252.7295 11.876,-3.427 c 0.162,-0.047 0.325,-0.069 0.484,-0.069 0.758,0 1.456,0.498 1.677,1.263 0.267,0.926 -0.267,1.893 -1.193,2.161 l -11.875,3.427 c -0.927,0.267 -1.894,-0.267 -2.161,-1.193 -0.269,-0.927 0.266,-1.893 1.192,-2.162" />
    </g>
  </g>
</svg>
