<?xml version="1.0" encoding="UTF-8" standalone="no"?>
<svg
   xmlns:dc="http://purl.org/dc/elements/1.1/"
   xmlns:cc="http://creativecommons.org/ns#"
   xmlns:rdf="http://www.w3.org/1999/02/22-rdf-syntax-ns#"
   xmlns:svg="http://www.w3.org/2000/svg"
   xmlns="http://www.w3.org/2000/svg"
   id="svg4836"
   version="1.1"
   viewBox="0 0 27.257528 24.011959"
   height="24.011959mm"
   width="27.257528mm">
  <defs
     id="defs4830" />
  <metadata
     id="metadata4833">
    <rdf:RDF>
      <cc:Work
         rdf:about="">
        <dc:format>image/svg+xml</dc:format>
        <dc:type
           rdf:resource="http://purl.org/dc/dcmitype/StillImage" />
        <dc:title></dc:title>
      </cc:Work>
    </rdf:RDF>
  </metadata>
  <g
     transform="translate(187.49781,-97.517832)"
     id="layer1">
    <g
       id="g1848"
       transform="matrix(0.35277777,0,0,-0.35277777,-270.01683,194.05561)">
      <path
         id="path1082"
         style="fill:#aabbce;fill-opacity:1;fill-rule:nonzero;stroke:none"
         d="m 272.5449,209.541 c -21.087,0 -32.143,14.264 -35.371,19.258 3.233,4.933 14.442,19.287 35.371,19.287 21.086,0 32.146,-14.26 35.373,-19.255 -3.233,-4.933 -14.442,-19.29 -35.373,-19.29 m 37.462,21.766 c -3.11,4.982 -14.743,20.736 -37.462,20.736 -22.719,0 -34.349,-15.754 -37.462,-20.736 -0.816,-0.573 -1.249,-1.53 -1.159,-2.491 -0.089,-0.963 0.344,-1.92 1.159,-2.495 3.112,-4.981 14.743,-20.736 37.462,-20.736 22.719,0 34.352,15.756 37.462,20.736 0.817,0.574 1.249,1.532 1.159,2.495 0.09,0.961 -0.342,1.918 -1.159,2.491" />
      <path
         id="path1086"
         style="fill:#aabbce;fill-opacity:1;fill-rule:nonzero;stroke:none"
         d="m 272.5464,217.8604 c 5.876,0 10.656,4.8 10.656,10.699 0,5.901 -4.78,10.702 -10.656,10.702 z m 0,24.77 c 7.727,0 14.01,-6.312 14.01,-14.07 0,-7.758 -6.283,-14.067 -14.01,-14.067 -7.726,0 -14.012,6.309 -14.012,14.067 0,7.758 6.286,14.07 14.012,14.07" />
      <path
         id="path1090"
         style="fill:#aabbce;fill-opacity:1;fill-rule:nonzero;stroke:none"
         d="m 272.5449,273.6504 c -1.075,0 -1.951,-0.878 -1.951,-1.957 v -8.772 c 0,-1.079 0.876,-1.958 1.951,-1.958 1.075,0 1.95,0.879 1.95,1.958 v 8.772 c 0,1.079 -0.875,1.957 -1.95,1.957" />
      <path
         id="path1094"
         style="fill:#aabbce;fill-opacity:1;fill-rule:nonzero;stroke:none"
         d="m 242.2603,264.8486 c -0.521,0 -1.012,-0.204 -1.38,-0.574 -0.369,-0.37 -0.571,-0.861 -0.572,-1.384 0,-0.523 0.203,-1.016 0.571,-1.384 l 6.179,-6.204 c 0.736,-0.738 2.021,-0.74 2.758,10e-4 0.76,0.763 0.76,2.005 0,2.768 l -6.177,6.203 c -0.368,0.37 -0.858,0.574 -1.378,0.574 z" />
      <path
         id="path1098"
         style="fill:#aabbce;fill-opacity:1;fill-rule:nonzero;stroke:none"
         d="m 306.5786,262.8975 c 0,0.524 -0.203,1.017 -0.572,1.387 -0.368,0.37 -0.857,0.572 -1.378,0.573 -0.521,0 -1.01,-0.203 -1.379,-0.572 l -6.178,-6.205 c -0.736,-0.74 -0.737,-2.03 0,-2.77 0.761,-0.763 1.998,-0.763 2.757,0 l 6.178,6.203 c 0.369,0.369 0.572,0.861 0.572,1.383 z" />
    </g>
  </g>
</svg>
