<?xml version="1.0" encoding="UTF-8" standalone="no"?>
<svg
   xmlns:dc="http://purl.org/dc/elements/1.1/"
   xmlns:cc="http://creativecommons.org/ns#"
   xmlns:rdf="http://www.w3.org/1999/02/22-rdf-syntax-ns#"
   xmlns:svg="http://www.w3.org/2000/svg"
   xmlns="http://www.w3.org/2000/svg"
   id="svg3063"
   version="1.1"
   viewBox="0 0 24.341312 17.785583"
   height="17.785583mm"
   width="24.341312mm">
  <defs
     id="defs3057" />
  <metadata
     id="metadata3060">
    <rdf:RDF>
      <cc:Work
         rdf:about="">
        <dc:format>image/svg+xml</dc:format>
        <dc:type
           rdf:resource="http://purl.org/dc/dcmitype/StillImage" />
        <dc:title></dc:title>
      </cc:Work>
    </rdf:RDF>
  </metadata>
  <g
     transform="translate(-49.817488,-111.21431)"
     id="layer1">
    <path
       d="m 65.733008,111.9176 v 13.57489 c 0,0.53904 -0.581731,0.87701 -1.050219,0.60995 -2.479675,-1.41393 -4.85387,-2.48637 -7.123289,-3.21839 l -0.340784,-0.10654 c -0.006,0.52 0.0092,1.03893 0.0448,1.5554 0.02999,0.42757 0.06738,0.75389 0.122767,1.08832 0.04621,0.27764 0.08925,0.49001 0.222956,1.11513 0.245886,1.15005 -0.629709,2.21544 -1.874662,2.42676 -0.08467,0.0141 -0.170391,0.0243 -0.256469,0.0303 -1.250244,0.0875 -2.371372,-0.72108 -2.452511,-1.8796 -0.0056,-0.0857 -0.0056,-0.17145 0,-0.25718 0.04551,-0.63747 0.05891,-0.85407 0.06562,-1.13524 0.0081,-0.33866 0,-0.66675 -0.03034,-1.09467 -0.06103,-0.87524 -0.182739,-1.74625 -0.365478,-2.61337 -0.0187,-0.0871 -0.02011,-0.17428 -0.0063,-0.25753 -0.731309,-0.10654 -1.471436,-0.18803 -2.221795,-0.24412 -0.366888,-0.0275 -0.649816,-0.33267 -0.649816,-0.70027 v -4.21252 c 0,-0.37359 0.2921,-0.68156 0.664986,-0.70167 2.25425,-0.11995 4.613627,-0.57644 7.077075,-1.3709 2.47015,-0.79727 4.841169,-1.8676 7.113411,-3.2131 0.468136,-0.27693 1.060097,0.0603 1.060097,0.60431 m -11.609917,10.07428 0.02646,0.13088 c 0.152047,0.79869 0.256116,1.60055 0.312561,2.40594 0.03281,0.47061 0.04269,0.84243 0.03316,1.22767 -0.0081,0.3108 -0.02152,0.53975 -0.06879,1.20015 -0.0014,0.0201 -0.0014,0.0395 0,0.0593 0.02258,0.32244 0.426155,0.61383 0.953558,0.57749 0.04057,-0.003 0.08043,-0.008 0.119591,-0.0145 0.509059,-0.0868 0.801864,-0.44273 0.735895,-0.74894 -0.137936,-0.647 -0.183444,-0.87208 -0.234949,-1.17899 -0.0628,-0.37959 -0.105128,-0.74966 -0.137937,-1.21991 -0.04727,-0.68051 -0.06068,-1.36313 -0.04022,-2.04787 -0.559153,-0.14394 -1.125008,-0.27129 -1.696861,-0.38277 z m 14.638161,0.15628 0.05221,0.049 2.595739,2.69945 c 0.268817,0.2794 0.259645,0.7239 -0.01976,0.99272 -0.261761,0.25224 -0.668867,0.26 -0.940506,0.03 l -0.05186,-0.0494 -2.596091,-2.69946 c -0.268464,-0.2794 -0.259644,-0.7239 0.01976,-0.99271 0.261761,-0.25189 0.668867,-0.26 0.940506,-0.0296 m -4.43265,-9.02195 c -2.037645,1.1183 -4.150078,2.03059 -6.337653,2.7365 -1.428397,0.46072 -2.826456,0.81315 -4.194881,1.05762 l 7.06e-4,3.59128 c 1.431925,0.25083 2.829983,0.59584 4.194175,1.03611 2.040114,0.65793 4.152194,1.57586 6.337653,2.75308 z m -11.936236,4.00826 c -0.392995,0.0497 -0.782814,0.09 -1.17087,0.121 v 2.91077 c 0.392995,0.037 0.78352,0.0808 1.171222,0.13123 z m 21.06436,0.63429 c 0.38735,0 0.702028,0.31468 0.702028,0.70238 0,0.38771 -0.314678,0.70203 -0.702028,0.70203 h -3.745088 c -0.387703,0 -0.702381,-0.31432 -0.702381,-0.70203 0,-0.3877 0.314678,-0.70238 0.702381,-0.70238 z m -2.067277,-6.3574 c 0.2794,0.26881 0.288572,0.71331 0.01976,0.99306 l -2.59574,2.69911 c -0.268463,0.27975 -0.712963,0.28822 -0.992716,0.0198 -0.2794,-0.26881 -0.28822,-0.71331 -0.01976,-0.99307 l 2.596093,-2.69945 c 0.268464,-0.2794 0.712964,-0.28822 0.992364,-0.0194"
       style="fill:#aabbce;fill-opacity:1;fill-rule:nonzero;stroke:none;stroke-width:0.35277775"
       id="path1078" />
  </g>
</svg>
