<?xml version="1.0" encoding="UTF-8" standalone="no"?>
<svg
   xmlns:dc="http://purl.org/dc/elements/1.1/"
   xmlns:cc="http://creativecommons.org/ns#"
   xmlns:rdf="http://www.w3.org/1999/02/22-rdf-syntax-ns#"
   xmlns:svg="http://www.w3.org/2000/svg"
   xmlns="http://www.w3.org/2000/svg"
   id="svg4226"
   version="1.1"
   viewBox="0 0 21.16667 21.16666"
   height="21.16666mm"
   width="21.16667mm">
  <defs
     id="defs4220" />
  <metadata
     id="metadata4223">
    <rdf:RDF>
      <cc:Work
         rdf:about="">
        <dc:format>image/svg+xml</dc:format>
        <dc:type
           rdf:resource="http://purl.org/dc/dcmitype/StillImage" />
        <dc:title></dc:title>
      </cc:Work>
    </rdf:RDF>
  </metadata>
  <g
     transform="translate(-114.14881,-175.29167)"
     id="layer1">
    <path
       d="m 134.8745,184.11111 h -3.96875 v -7.49653 c 0,-0.74965 -0.57326,-1.32291 -1.32291,-1.32291 h -14.11111 c -0.74966,0 -1.32292,0.57326 -1.32292,1.32291 v 17.10973 c 0,1.4993 1.23472,2.73402 2.73403,2.73402 h 15.7868 c 1.45521,0 2.64584,-1.19062 2.64584,-2.64583 v -9.26042 c 0,-0.26458 -0.17639,-0.44097 -0.44098,-0.44097 m -17.99166,11.46528 c -1.01424,0 -1.85209,-0.83785 -1.85209,-1.85208 v -17.10973 c 0,-0.26458 0.17639,-0.44097 0.44098,-0.44097 h 14.11111 c 0.26458,0 0.44097,0.17639 0.44097,0.44097 v 7.9375 c 0,9.39271 -0.26458,9.96598 0.66146,11.02431 z m 17.55069,-1.76389 c 0,0.97014 -0.79375,1.76389 -1.76389,1.76389 -0.97014,0 -1.76389,-0.79375 -1.76389,-1.76389 v -8.81944 h 3.52778 z"
       style="fill:#aabbce;fill-opacity:1;fill-rule:nonzero;stroke:none;stroke-width:0.35277775"
       id="path1034" />
    <path
       d="m 117.23562,183.22917 h 3.52777 c 0.26459,0 0.44098,-0.17639 0.44098,-0.44098 v -4.40972 c 0,-0.26458 -0.17639,-0.44097 -0.44098,-0.44097 h -3.52777 c -0.26459,0 -0.44098,0.17639 -0.44098,0.44097 v 4.40972 c 0,0.26459 0.17639,0.44098 0.44098,0.44098 m 0.44097,-4.40973 h 2.64583 v 3.52778 h -2.64583 z"
       style="fill:#aabbce;fill-opacity:1;fill-rule:nonzero;stroke:none;stroke-width:0.35277775"
       id="path1038" />
    <path
       d="m 127.81895,180.14236 h -4.40972 c -0.26459,0 -0.44098,0.17639 -0.44098,0.44097 0,0.26459 0.17639,0.44098 0.44098,0.44098 h 4.40972 c 0.26458,0 0.44097,-0.17639 0.44097,-0.44098 0,-0.26458 -0.17639,-0.44097 -0.44097,-0.44097"
       style="fill:#aabbce;fill-opacity:1;fill-rule:nonzero;stroke:none;stroke-width:0.35277775"
       id="path1042" />
    <path
       d="m 121.64534,184.99306 h -4.40972 c -0.26459,0 -0.44098,0.17638 -0.44098,0.44097 0,0.26458 0.17639,0.44097 0.44098,0.44097 h 4.40972 c 0.26458,0 0.44097,-0.17639 0.44097,-0.44097 0,-0.26459 -0.17639,-0.44097 -0.44097,-0.44097"
       style="fill:#aabbce;fill-opacity:1;fill-rule:nonzero;stroke:none;stroke-width:0.35277775"
       id="path1046" />
    <path
       d="m 127.81895,184.99306 h -4.40972 c -0.26459,0 -0.44098,0.17638 -0.44098,0.44097 0,0.26458 0.17639,0.44097 0.44098,0.44097 h 4.40972 c 0.26458,0 0.44097,-0.17639 0.44097,-0.44097 0,-0.26459 -0.17639,-0.44097 -0.44097,-0.44097"
       style="fill:#aabbce;fill-opacity:1;fill-rule:nonzero;stroke:none;stroke-width:0.35277775"
       id="path1050" />
    <path
       d="m 121.64534,187.63889 h -4.40972 c -0.26459,0 -0.44098,0.17639 -0.44098,0.44097 0,0.26458 0.17639,0.44097 0.44098,0.44097 h 4.40972 c 0.26458,0 0.44097,-0.17639 0.44097,-0.44097 0,-0.26458 -0.17639,-0.44097 -0.44097,-0.44097"
       style="fill:#aabbce;fill-opacity:1;fill-rule:nonzero;stroke:none;stroke-width:0.35277775"
       id="path1054" />
    <path
       d="m 127.81895,187.63889 h -4.40972 c -0.26459,0 -0.44098,0.17639 -0.44098,0.44097 0,0.26458 0.17639,0.44097 0.44098,0.44097 h 4.40972 c 0.26458,0 0.44097,-0.17639 0.44097,-0.44097 0,-0.26458 -0.17639,-0.44097 -0.44097,-0.44097"
       style="fill:#aabbce;fill-opacity:1;fill-rule:nonzero;stroke:none;stroke-width:0.35277775"
       id="path1058" />
    <path
       d="m 121.64534,190.28472 h -4.40972 c -0.26459,0 -0.44098,0.17639 -0.44098,0.44097 0,0.26459 0.17639,0.44098 0.44098,0.44098 h 4.40972 c 0.26458,0 0.44097,-0.17639 0.44097,-0.44098 0,-0.26458 -0.17639,-0.44097 -0.44097,-0.44097"
       style="fill:#aabbce;fill-opacity:1;fill-rule:nonzero;stroke:none;stroke-width:0.35277775"
       id="path1062" />
    <path
       d="m 127.81895,190.28472 h -4.40972 c -0.26459,0 -0.44098,0.17639 -0.44098,0.44097 0,0.26459 0.17639,0.44098 0.44098,0.44098 h 4.40972 c 0.26458,0 0.44097,-0.17639 0.44097,-0.44098 0,-0.26458 -0.17639,-0.44097 -0.44097,-0.44097"
       style="fill:#aabbce;fill-opacity:1;fill-rule:nonzero;stroke:none;stroke-width:0.35277775"
       id="path1066" />
    <path
       d="m 121.64534,192.93056 h -4.40972 c -0.26459,0 -0.44098,0.17638 -0.44098,0.44097 0,0.26458 0.17639,0.44097 0.44098,0.44097 h 4.40972 c 0.26458,0 0.44097,-0.17639 0.44097,-0.44097 0,-0.26459 -0.17639,-0.44097 -0.44097,-0.44097"
       style="fill:#aabbce;fill-opacity:1;fill-rule:nonzero;stroke:none;stroke-width:0.35277775"
       id="path1070" />
    <path
       d="m 127.81895,192.93056 h -4.40972 c -0.26459,0 -0.44098,0.17638 -0.44098,0.44097 0,0.26458 0.17639,0.44097 0.44098,0.44097 h 4.40972 c 0.26458,0 0.44097,-0.17639 0.44097,-0.44097 0,-0.26459 -0.17639,-0.44097 -0.44097,-0.44097"
       style="fill:#aabbce;fill-opacity:1;fill-rule:nonzero;stroke:none;stroke-width:0.35277775"
       id="path1074" />
  </g>
</svg>
