<?xml version="1.0" encoding="UTF-8" standalone="no"?>
<svg
   xmlns:dc="http://purl.org/dc/elements/1.1/"
   xmlns:cc="http://creativecommons.org/ns#"
   xmlns:rdf="http://www.w3.org/1999/02/22-rdf-syntax-ns#"
   xmlns:svg="http://www.w3.org/2000/svg"
   xmlns="http://www.w3.org/2000/svg"
   id="svg2451"
   version="1.1"
   viewBox="0 0 19.80636 19.806709"
   height="19.806709mm"
   width="19.80636mm">
  <defs
     id="defs2445" />
  <metadata
     id="metadata2448">
    <rdf:RDF>
      <cc:Work
         rdf:about="">
        <dc:format>image/svg+xml</dc:format>
        <dc:type
           rdf:resource="http://purl.org/dc/dcmitype/StillImage" />
        <dc:title></dc:title>
      </cc:Work>
    </rdf:RDF>
  </metadata>
  <g
     transform="translate(-108.02539,-176.7276)"
     id="layer1">
    <path
       d="m 117.92857,176.7276 c -5.46382,0 -9.90318,4.43935 -9.90318,9.90318 0,5.46417 4.43936,9.90353 9.90318,9.90353 5.46382,0 9.90318,-4.43936 9.90318,-9.90353 0,-5.46383 -4.43936,-9.90318 -9.90318,-9.90318 m 0,0.92075 c 4.96605,0 8.98208,4.01637 8.98208,8.98243 0,4.9657 -4.01603,8.98207 -8.98208,8.98207 -4.96605,0 -8.98207,-4.01637 -8.98207,-8.98207 0,-4.96606 4.01602,-8.98243 8.98207,-8.98243 m -2.55623,4.13879 c -0.25435,-0.004 -0.4639,0.19896 -0.46778,0.45332 v 0.0145 8.75171 c -0.002,0.25471 0.20214,0.46249 0.45649,0.46496 0.0822,7.2e-4 0.16334,-0.0212 0.23425,-0.0617 l 7.83061,-4.37585 c 0.16616,-0.0935 0.25788,-0.2794 0.23036,-0.46779 -0.0198,-0.14287 -0.10477,-0.26775 -0.23036,-0.33831 l -7.83061,-4.3762 c -0.0674,-0.0399 -0.14429,-0.0624 -0.22296,-0.0646 m 0.45332,8.43527 v -7.18291"
       style="fill:#aabbce;fill-opacity:1;fill-rule:nonzero;stroke:none;stroke-width:0.35277775"
       id="path1030" />
  </g>
</svg>
