<?xml version="1.0" encoding="UTF-8" standalone="no"?>
<svg
   xmlns:dc="http://purl.org/dc/elements/1.1/"
   xmlns:cc="http://creativecommons.org/ns#"
   xmlns:rdf="http://www.w3.org/1999/02/22-rdf-syntax-ns#"
   xmlns:svg="http://www.w3.org/2000/svg"
   xmlns="http://www.w3.org/2000/svg"
   id="svg4681"
   version="1.1"
   viewBox="0 0 168.92674 78.296028"
   height="78.296028mm"
   width="168.92674mm">
  <defs
     id="defs4675" />
  <metadata
     id="metadata4678">
    <rdf:RDF>
      <cc:Work
         rdf:about="">
        <dc:format>image/svg+xml</dc:format>
        <dc:type
           rdf:resource="http://purl.org/dc/dcmitype/StillImage" />
        <dc:title></dc:title>
      </cc:Work>
    </rdf:RDF>
  </metadata>
  <g
     transform="translate(4.7103988,-98.34603)"
     id="layer1">
    <path
       d="m 10.758606,164.47273 h 2.1336 v -7.94174 h 3.183467 v -1.74413 H 7.5751396 v 1.74413 h 3.1834664 z m 16.272933,-1.71027 v -2.37067 h 4.6228 v -1.65946 h -4.6228 v -2.21827 h 5.198533 v -1.7272 h -7.332133 v 9.68587 h 7.5184 v -1.71027 z m 22.097646,1.71027 h 2.116666 l -4.385733,-9.68587 h -2.116667 l -4.402666,9.68587 h 2.0828 l 0.9144,-2.09974 h 4.893733 z m -5.08,-3.72534 1.744133,-4.03013 1.744133,4.03013 z m 17.051866,3.72534 h 2.1336 v -7.94174 h 3.183467 v -1.74413 h -8.500533 v 1.74413 h 3.183466 z m 22.741467,0 -2.218267,-3.13267 c 0.654402,-0.27093 1.157111,-0.66887 1.507067,-1.1938 0.349602,-0.52493 0.524933,-1.14864 0.524933,-1.87113 0,-1.09503 -0.378531,-1.9498 -1.134533,-2.5654 -0.756356,-0.61525 -1.78929,-0.92287 -3.0988,-0.92287 h -4.182533 v 9.68587 h 2.1336 v -2.7432 h 2.048933 0.169333 l 1.947334,2.7432 z m -2.3368,-6.1976 c 0,0.57573 -0.18909,1.016 -0.567267,1.3208 -0.378531,0.3048 -0.934156,0.4572 -1.667933,0.4572 h -1.896533 v -3.53907 h 1.896533 c 0.733777,0 1.289402,0.14993 1.667933,0.44873 0.378177,0.29916 0.567267,0.7366 0.567267,1.31234 m 16.340667,6.36693 c 1.016,0 1.9304,-0.21731 2.743205,-0.65193 0.8128,-0.43463 1.45026,-1.03294 1.91346,-1.79494 0.46249,-0.762 0.69427,-1.61713 0.69427,-2.5654 0,-0.94826 -0.23178,-1.8034 -0.69427,-2.5654 -0.4632,-0.762 -1.10066,-1.35749 -1.91346,-1.78646 -0.812805,-0.42898 -1.727205,-0.64347 -2.743205,-0.64347 -1.005065,0 -1.913467,0.21449 -2.726267,0.64347 -0.8128,0.42897 -1.450975,1.02446 -1.913467,1.78646 -0.463198,0.762 -0.694266,1.61714 -0.694266,2.5654 0,0.94827 0.231068,1.8034 0.694266,2.5654 0.462492,0.762 1.100667,1.36031 1.913467,1.79494 0.8128,0.43462 1.721202,0.65193 2.726267,0.65193 m 0,-1.81187 c -0.598665,0 -1.140532,-0.13829 -1.6256,-0.41486 -0.485775,-0.27658 -0.866775,-0.65758 -1.143,-1.143 -0.276932,-0.48543 -0.414867,-1.03294 -0.414867,-1.64254 0,-0.6096 0.137935,-1.15393 0.414867,-1.63406 0.276225,-0.47978 0.657225,-0.85796 1.143,-1.13454 0.485068,-0.27657 1.026935,-0.41486 1.6256,-0.41486 0.6096,0 1.156758,0.13546 1.642533,0.4064 0.485069,0.27093 0.863602,0.64946 1.134532,1.13453 0.27094,0.48542 0.4064,1.03293 0.4064,1.64253 0,0.6096 -0.13546,1.15711 -0.4064,1.64254 -0.27093,0.48542 -0.649463,0.86642 -1.134532,1.143 -0.485775,0.27657 -1.032933,0.41486 -1.642533,0.41486 m 31.038445,1.81187 c 1.38853,0 2.46627,-0.381 3.23427,-1.143 0.76729,-0.762 1.15146,-1.82033 1.15146,-3.175 v -5.5372 h -2.09973 v 5.46947 c 0,0.84666 -0.19473,1.48731 -0.5842,1.92193 -0.38947,0.43462 -0.95144,0.65193 -1.68487,0.65193 -0.74506,0 -1.31551,-0.22013 -1.71026,-0.6604 -0.39547,-0.44026 -0.59267,-1.07773 -0.59267,-1.91346 v -5.46947 h -2.1336 v 5.5372 c 0,1.34338 0.38947,2.39889 1.1684,3.16653 0.77893,0.76765 1.86267,1.15147 3.2512,1.15147 m 19.04965,0 c 1.73848,0 3.07057,-0.54751 3.99626,-1.64253 l -1.38853,-1.33774 c -0.67733,0.77894 -1.524,1.1684 -2.54,1.1684 -0.62089,0 -1.17687,-0.13546 -1.66793,-0.4064 -0.49107,-0.27093 -0.87489,-0.64911 -1.15147,-1.13453 -0.27658,-0.48542 -0.41487,-1.03858 -0.41487,-1.65947 0,-0.6096 0.13829,-1.15711 0.41487,-1.64253 0.27658,-0.48507 0.6604,-0.8636 1.15147,-1.13453 0.49106,-0.27094 1.04704,-0.4064 1.66793,-0.4064 1.00471,0 1.85138,0.38382 2.54,1.15146 l 1.38853,-1.3208 c -0.90311,-1.09502 -2.2352,-1.64253 -3.99626,-1.64253 -1.00472,0 -1.91065,0.21731 -2.7178,0.65193 -0.80716,0.43463 -1.44216,1.03011 -1.905,1.78647 -0.46285,0.75636 -0.69427,1.60867 -0.69427,2.55693 0,0.94827 0.23142,1.8034 0.69427,2.5654 0.46284,0.762 1.09784,1.36031 1.905,1.79494 0.80715,0.43462 1.71308,0.65193 2.7178,0.65193"
       style="fill:#006cff;fill-opacity:1;fill-rule:nonzero;stroke:none;stroke-width:0.35277775"
       id="path4578" />
    <path
       d="m 13.075862,146.48106 c 2.774597,0 4.793544,-0.69321 6.056841,-2.08139 1.262592,-1.38747 1.894064,-3.38561 1.894064,-5.9944 v -1.66511 c 0,-1.58185 -0.236008,-2.83069 -0.707672,-3.7465 -0.472369,-0.91581 -1.207205,-1.60902 -2.206272,-2.08139 0.971197,-0.55492 1.692275,-1.22096 2.164644,-1.99813 0.249767,-0.41628 0.437092,-0.90135 0.561975,-1.45697 0.124884,-0.55492 0.187325,-1.23437 0.187325,-2.03976 v -1.08233 c 0,-0.97119 -0.131939,-1.90782 -0.395464,-2.80987 -0.26423,-0.90135 -0.701322,-1.69968 -1.311275,-2.3936 -0.610658,-0.69321 -1.39453,-1.24883 -2.351969,-1.66511 -0.957438,-0.41628 -2.116666,-0.62442 -3.475919,-0.62442 H 7.2896012 v 29.63898 z m 0.333022,-13.73717 c 0.776464,0 1.400881,0.0903 1.87325,0.27059 0.471664,0.18097 0.846314,0.46496 1.12395,0.85336 0.249767,0.38912 0.416278,0.86043 0.499534,1.41535 0.08326,0.55562 0.124883,1.2072 0.124883,1.9565 0,0.72214 -0.02787,1.38819 -0.08326,1.99814 -0.05609,0.61066 -0.208139,1.13841 -0.457905,1.58185 -0.249767,0.44415 -0.618067,0.79093 -1.103136,1.0407 -0.485775,0.24976 -1.159228,0.37465 -2.018948,0.37465 h -1.831621 v -9.49114 z m -0.124883,-11.90554 c 1.415345,0 2.393597,0.33302 2.934758,0.99907 0.541161,0.66604 0.811742,1.66511 0.811742,2.9972 0,1.35996 -0.243417,2.39359 -0.728486,3.10127 -0.485775,0.70767 -1.436158,1.06151 -2.851503,1.06151 h -1.914877 v -8.15905 z m 18.734263,-3.99627 h -4.246033 v 29.63898 h 4.246033 z m 14.839245,29.63898 v -25.64271 h 4.912077 v -3.99627 h -14.07019 v 3.99627 h 4.91208 v 25.64271 z m 13.756569,-10.36532 2.081387,-10.73996 h 0.08326 l 2.08139,10.73996 z m -1.998133,10.36532 1.248833,-6.36905 h 5.78626 l 1.248833,6.36905 h 4.246034 l -6.618817,-29.63898 h -3.53836 l -6.618817,29.63898 z m 6.093883,-31.93168 3.958167,-4.20335 h -4.4958 l -2.839157,4.20335 z m 20.736277,23.48124 v 1.45697 c 0,0.58279 -0.08326,1.06857 -0.249767,1.45698 -0.16651,0.38911 -0.37465,0.69391 -0.624417,0.91581 -0.277989,0.2226 -0.576439,0.3817 -0.894998,0.47872 -0.319616,0.0977 -0.618066,0.14569 -0.894995,0.14569 -0.971905,0 -1.644298,-0.29139 -2.018948,-0.87418 -0.37465,-0.58279 -0.561975,-1.30422 -0.561975,-2.16464 v -15.15251 c 0,-0.99907 0.17286,-1.82457 0.520348,-2.47686 0.346427,-0.65158 1.047043,-0.97825 2.102202,-0.97825 0.804333,0 1.442508,0.30586 1.914877,0.91581 0.471313,0.61066 0.707673,1.33209 0.707673,2.16465 v 1.41534 h 4.246033 v -1.66511 c 0,-1.02623 -0.173918,-1.97732 -0.520348,-2.8515 -0.347485,-0.87419 -0.826204,-1.62984 -1.436158,-2.26872 -1.248834,-1.30422 -2.872317,-1.9565 -4.87045,-1.9565 -1.027287,0 -1.963912,0.17356 -2.809875,0.52034 -0.847019,0.34749 -1.575504,0.82621 -2.185459,1.43616 -0.61101,0.61066 -1.08232,1.33209 -1.415343,2.16465 -0.333023,0.83255 -0.499534,1.73461 -0.499534,2.7058 v 16.31809 c 0,1.35996 0.21449,2.47685 0.645232,3.35104 0.429683,0.87418 0.978252,1.58891 1.644295,2.14383 0.666047,0.55562 1.415347,0.94368 2.2479,1.16557 0.832557,0.2219 1.650648,0.33303 2.45604,0.33303 0.942975,0 1.824215,-0.18733 2.643365,-0.56198 0.818092,-0.37465 1.532818,-0.88053 2.143829,-1.51941 0.609954,-0.63818 1.088673,-1.36666 1.436158,-2.18546 0.34643,-0.81809 0.520348,-1.68593 0.520348,-2.60174 v -1.83162 z m 10.364962,1.45697 c 0,1.24884 0.20814,2.3174 0.624417,3.20534 0.416279,0.88865 0.971198,1.62349 1.665112,2.20627 0.666044,0.61066 1.422046,1.06857 2.268714,1.37372 0.84631,0.30516 1.69968,0.45791 2.56011,0.45791 0.86007,0 1.71344,-0.15275 2.56011,-0.45791 0.84631,-0.30515 1.61643,-0.76306 2.31034,-1.37372 0.66604,-0.58278 1.2072,-1.31762 1.62348,-2.20627 0.41628,-0.88794 0.62442,-1.9565 0.62442,-3.20534 v -15.65204 c 0,-1.19274 -0.20814,-2.2479 -0.62442,-3.16371 -0.41628,-0.91581 -0.95744,-1.67887 -1.62348,-2.28953 -0.69391,-0.58279 -1.46403,-1.02623 -2.31034,-1.33209 -0.84667,-0.30515 -1.70004,-0.4579 -2.56011,-0.4579 -0.86043,0 -1.7138,0.15275 -2.56011,0.4579 -0.846668,0.30586 -1.60267,0.7493 -2.268714,1.33209 -0.693914,0.61066 -1.248833,1.37372 -1.665112,2.28953 -0.416277,0.91581 -0.624417,1.97097 -0.624417,3.16371 z m 4.246033,-15.65204 c 0,-1.02623 0.28434,-1.78294 0.85337,-2.26871 0.56868,-0.48507 1.24178,-0.72849 2.01895,-0.72849 0.77681,0 1.44991,0.24342 2.01895,0.72849 0.56867,0.48577 0.85336,1.24248 0.85336,2.26871 v 15.65204 c 0,1.02694 -0.28469,1.78365 -0.85336,2.26872 -0.56904,0.48577 -1.24214,0.72848 -2.01895,0.72848 -0.77717,0 -1.45027,-0.24271 -2.01895,-0.72848 -0.56903,-0.48507 -0.85337,-1.24178 -0.85337,-2.26872 z m 23.10342,-2.9972 c 1.47038,0 2.46979,0.38911 2.9972,1.16558 0.24976,0.41628 0.41628,0.90946 0.49953,1.47778 0.0833,0.56904 0.12488,1.22802 0.12488,1.97732 0,0.7493 -0.0416,1.409 -0.12488,1.97732 -0.0832,0.56903 -0.23636,1.04775 -0.4579,1.43616 -0.24977,0.38912 -0.59726,0.68686 -1.0407,0.895 -0.44415,0.20814 -1.04069,0.31221 -1.78999,0.31221 h -2.41441 v -9.24137 z m -2.20627,25.64271 v -12.65484 h 2.53929 l 3.95464,12.65484 h 4.4958 l -4.57906,-13.52903 c 1.35925,-0.7493 2.31034,-1.7339 2.8515,-2.95557 0.54117,-1.22096 0.81175,-2.7058 0.81175,-4.45417 0,-5.80002 -2.49767,-8.70021 -7.493,-8.70021 h -6.82696 v 29.63898 z m 20.73027,-10.36532 2.08139,-10.73996 h 0.0833 l 2.08139,10.73996 z m -1.99813,10.36532 1.24883,-6.36905 h 5.78626 l 1.24884,6.36905 h 4.24603 l -6.61882,-29.63898 h -3.53836 l -6.61881,29.63898 z"
       style="fill:#006cff;fill-opacity:1;fill-rule:nonzero;stroke:none;stroke-width:0.35277775"
       id="path4582" />
  </g>
</svg>
